<svg width="16" height="16" viewBox="0 0 20 20" fill="none" xmlns="http://www.w3.org/2000/svg">
<g clip-path="url(#clip0_174_1245)">
<path d="M13.2699 8.99999C13.2677 8.32767 13.1957 7.6574 13.0549 6.99999H14.8549C14.7627 6.72559 14.6507 6.45822 14.5199 6.19999H12.8449C12.5302 5.14795 12.0418 4.15594 11.3999 3.26499C10.9899 3.09259 10.5624 2.96518 10.1249 2.88499C11.0044 3.82932 11.6681 4.95363 12.0699 6.17999H9.37488V2.79999H8.62488V6.18499H5.92988C6.33248 4.95641 6.99791 3.8303 7.87988 2.88499C7.44429 2.96391 7.01849 3.08964 6.60988 3.25999C5.96545 4.1472 5.47369 5.1358 5.15488 6.18499H3.46988C3.33668 6.44793 3.22304 6.72034 3.12988 6.99999H4.94488C4.8041 7.6574 4.73204 8.32767 4.72988 8.99999C4.73139 9.73537 4.81525 10.4683 4.97988 11.185H3.20988C3.31275 11.4655 3.43643 11.7379 3.57988 12H5.19488C5.50084 12.9579 5.95465 13.8622 6.53988 14.68C6.9589 14.8596 7.39659 14.9921 7.84488 15.075C7.02873 14.185 6.40114 13.139 5.99988 12H8.62988V15.17H9.37988V12H11.9999C11.5971 13.1394 10.9678 14.1854 10.1499 15.075C10.6003 14.9892 11.0397 14.8534 11.4599 14.67C12.0442 13.8553 12.498 12.9545 12.8049 12H14.4049C14.5477 11.7428 14.6713 11.4754 14.7749 11.2H12.9999C13.1724 10.4791 13.2629 9.74114 13.2699 8.99999ZM8.62488 11.185H5.75488C5.40306 9.80888 5.38763 8.36831 5.70988 6.98499H8.62488V11.185ZM12.2449 11.185H9.37488V6.99999H12.2899C12.4336 7.65685 12.504 8.32761 12.4999 8.99999C12.5045 9.73601 12.4189 10.4698 12.2449 11.185Z" fill="black"/>
<path d="M9 1C7.41775 1 5.87103 1.46919 4.55544 2.34824C3.23985 3.22729 2.21447 4.47672 1.60897 5.93853C1.00347 7.40034 0.84504 9.00887 1.15372 10.5607C1.4624 12.1126 2.22433 13.538 3.34315 14.6569C4.46197 15.7757 5.88743 16.5376 7.43928 16.8463C8.99113 17.155 10.5997 16.9965 12.0615 16.391C13.5233 15.7855 14.7727 14.7602 15.6518 13.4446C16.5308 12.129 17 10.5823 17 9C17 6.87827 16.1571 4.84344 14.6569 3.34315C13.1566 1.84285 11.1217 1 9 1ZM9 16C7.61553 16 6.26216 15.5895 5.11101 14.8203C3.95987 14.0511 3.06266 12.9579 2.53285 11.6788C2.00303 10.3997 1.86441 8.99224 2.13451 7.63437C2.4046 6.2765 3.07129 5.02922 4.05026 4.05025C5.02922 3.07128 6.2765 2.4046 7.63437 2.1345C8.99224 1.86441 10.3997 2.00303 11.6788 2.53284C12.9579 3.06266 14.0511 3.95986 14.8203 5.11101C15.5895 6.26215 16 7.61553 16 9C16 10.8565 15.2625 12.637 13.9498 13.9497C12.637 15.2625 10.8565 16 9 16Z" fill="black"/>
</g>
<defs>
<clipPath id="clip0_174_1245">
<rect width="18" height="18" fill="white"/>
</clipPath>
</defs>
</svg>
	