<svg width="72" height="72" viewBox="0 0 96 96" fill="none" xmlns="http://www.w3.org/2000/svg">
<circle cx="48" cy="48" r="48" fill="#FFEBEB"/>
<path d="M39.832 42.6667C39.832 40.3681 40.7451 38.1637 42.3704 36.5384C43.9958 34.9131 46.2002 34 48.4987 34C50.7972 34 53.0016 34.9131 54.627 36.5384C56.2523 38.1637 57.1654 40.3681 57.1654 42.6667C57.1654 44.9652 56.2523 47.1696 54.627 48.7949C53.0016 50.4202 50.7972 51.3333 48.4987 51.3333C46.2002 51.3333 43.9958 50.4202 42.3704 48.7949C40.7451 47.1696 39.832 44.9652 39.832 42.6667Z" fill="#CC0000"/>
<path fill-rule="evenodd" clip-rule="evenodd" d="M26.5622 39.672C27.0058 34.3113 29.4482 29.3133 33.4048 25.6693C37.3615 22.0253 42.5433 20.0018 47.9222 20H49.0742C54.4532 20.0018 59.635 22.0253 63.5917 25.6693C67.5483 29.3133 69.9907 34.3113 70.4342 39.672C70.9265 45.6571 69.0787 51.5999 65.2796 56.2507L52.4982 71.8827C52.0138 72.4756 51.4036 72.9534 50.7118 73.2815C50.02 73.6097 49.2639 73.7799 48.4982 73.7799C47.7326 73.7799 46.9765 73.6097 46.2847 73.2815C45.5929 72.9534 44.9827 72.4756 44.4982 71.8827L31.7196 56.2507C27.9195 51.6003 26.0708 45.6574 26.5622 39.672ZM48.4982 30C45.1388 30 41.917 31.3345 39.5416 33.71C37.1661 36.0854 35.8316 39.3073 35.8316 42.6667C35.8316 46.0261 37.1661 49.2479 39.5416 51.6234C41.917 53.9988 45.1388 55.3333 48.4982 55.3333C51.8577 55.3333 55.0795 53.9988 57.4549 51.6234C59.8304 49.2479 61.1649 46.0261 61.1649 42.6667C61.1649 39.3073 59.8304 36.0854 57.4549 33.71C55.0795 31.3345 51.8577 30 48.4982 30Z" fill="#CC0000"/>
</svg>
    